<svg width="144" height="409" viewBox="0 0 144 409" fill="none" xmlns="http://www.w3.org/2000/svg">
<path opacity="0.2" d="M79.8976 30.2719C70.1354 25.4313 59.4093 22.8477 48.5137 22.7125C33.6475 23.2629 19.2094 27.8297 6.7348 35.9273C-5.73983 44.0249 -15.7848 55.3506 -22.3321 68.7001L-105.787 284.214C-109.392 293.416 -111.079 303.258 -110.744 313.135C-110.409 323.013 -108.06 332.719 -103.84 341.658C-99.6201 350.598 -93.6186 358.582 -86.2031 365.122C-78.7877 371.662 -70.1146 376.621 -60.7153 379.693C-51.4197 383.818 -41.3757 385.991 -31.2063 386.077C-21.0369 386.163 -10.959 384.16 -1.59724 380.192C7.76449 376.224 16.2102 370.376 23.2163 363.01C30.2224 355.644 35.6394 346.918 39.1314 337.372L123.778 123.805C127.102 114.79 128.602 105.205 128.192 95.6047C127.781 86.0048 125.468 76.5815 121.386 67.881C117.304 59.1805 111.535 51.376 104.413 44.92C97.2915 38.4641 88.9585 33.4852 79.8976 30.2719Z" fill="white" stroke="#1D3259" stroke-width="2"/>
<path d="M104.796 142.279C105.531 141.915 106.338 141.72 107.159 141.71C108.278 141.751 109.365 142.095 110.304 142.705C111.244 143.315 112 144.167 112.493 145.173L118.777 161.4C119.048 162.093 119.175 162.834 119.15 163.578C119.125 164.321 118.948 165.052 118.63 165.725C118.313 166.398 117.861 166.999 117.302 167.492C116.744 167.984 116.091 168.358 115.383 168.589C114.683 168.9 113.927 169.063 113.161 169.07C112.396 169.076 111.637 168.925 110.932 168.627C110.227 168.328 109.591 167.887 109.063 167.333C108.536 166.778 108.128 166.121 107.865 165.402L101.492 149.322C101.241 148.643 101.128 147.921 101.159 147.198C101.19 146.476 101.364 145.766 101.672 145.111C101.979 144.456 102.413 143.868 102.95 143.382C103.486 142.896 104.113 142.521 104.796 142.279Z" fill="#61F2C2"/>
<path d="M90.3373 343.46C88.8991 342.746 87.3188 342.366 85.7136 342.346C83.5233 342.427 81.3962 343.1 79.5583 344.293C77.7204 345.486 76.2405 347.154 75.2759 349.121L62.9805 380.873C62.4494 382.229 62.2009 383.678 62.2502 385.134C62.2995 386.589 62.6457 388.019 63.2674 389.336C63.8891 390.653 64.7733 391.829 65.8658 392.793C66.9583 393.756 68.2361 394.487 69.6209 394.94C70.9904 395.547 72.4702 395.868 73.9684 395.88C75.4667 395.893 76.9515 395.598 78.3307 395.013C79.71 394.429 80.9543 393.567 81.9865 392.482C83.0187 391.397 83.8168 390.111 84.3313 388.705L96.8022 357.24C97.292 355.912 97.513 354.499 97.4525 353.085C97.392 351.671 97.0512 350.282 96.4498 349.001C95.8485 347.719 94.9985 346.569 93.9492 345.618C92.9 344.667 91.6723 343.933 90.3373 343.46Z" fill="#7251F4"/>
</svg>
